<svg width="215" height="228" viewBox="0 0 215 228" fill="none" xmlns="http://www.w3.org/2000/svg">
<path d="M108.121 228L85.6125 189.015L130.629 189.015L108.121 228Z" fill="#2FC18C"/>
<g filter="url(#filter0_di_11_631)">
<ellipse cx="107.546" cy="105.088" rx="98.5463" ry="99.0878" fill="#3C1B7A"/>
<path d="M107.546 206.746C163.405 206.746 208.663 161.219 208.663 105.088C208.663 48.9566 163.405 3.42923 107.546 3.42923C51.6876 3.42923 6.42923 48.9566 6.42923 105.088C6.42923 161.219 51.6876 206.746 107.546 206.746Z" stroke="#2FC18C" stroke-width="5.14155"/>
</g>
<path d="M101.869 87.1477L115.034 87.2077L114.976 99.9757L101.81 99.9158L101.869 87.1477ZM85.8878 55.2645C86.2795 46.8719 89.2372 40.9357 94.761 37.4558C98.2467 35.2332 102.523 34.1334 107.589 34.1565C114.245 34.1868 119.76 35.8025 124.134 39.0034C128.538 42.2045 130.725 46.9271 130.697 53.1713C130.68 57.0002 129.708 60.221 127.781 62.8336C126.655 64.419 124.495 66.4415 121.303 68.9011L118.155 71.3167C116.441 72.6343 115.3 74.1755 114.732 75.9401C114.374 77.0578 114.174 78.7946 114.134 81.1508L102.205 81.0964C102.405 76.1196 102.892 72.6904 103.666 70.8089C104.441 68.8979 106.424 66.7126 109.616 64.253L112.853 61.7495C113.917 60.959 114.775 60.0941 115.427 59.1545C116.613 57.5399 117.21 55.7607 117.219 53.8167C117.229 51.5783 116.576 49.543 115.258 47.7108C113.971 45.8494 111.589 44.9107 108.114 44.8949C104.697 44.8793 102.262 46.0022 100.809 48.2635C99.3846 50.525 98.667 52.8781 98.6559 55.3227L85.8878 55.2645Z" fill="#2FC18C"/>
<path d="M138.478 92.6171L146.723 97.4274L142.065 105.411L133.82 100.601L138.478 92.6171ZM139.985 66.8349C143.268 61.7152 147.274 59.0658 152.002 58.8865C154.995 58.7567 158.078 59.6172 161.251 61.4682C165.419 63.9002 168.297 66.9125 169.885 70.5049C171.491 74.1082 171.155 77.862 168.877 81.7664C167.481 84.1606 165.704 85.8275 163.549 86.7671C162.268 87.3527 160.18 87.8379 157.285 88.2227L154.435 88.596C152.881 88.8006 151.607 89.3532 150.612 90.2537C149.982 90.8245 149.228 91.8411 148.35 93.3037L140.88 88.9454C142.807 85.8975 144.354 83.9241 145.521 83.0252C146.699 82.1079 148.735 81.4568 151.63 81.072L154.568 80.6757C155.522 80.5659 156.374 80.3347 157.124 79.9821C158.453 79.3996 159.472 78.5006 160.181 77.2851C160.998 75.8854 161.324 74.3725 161.16 72.7464C161.026 71.1126 159.87 69.6608 157.694 68.391C155.554 67.1427 153.619 66.9639 151.887 67.8547C150.175 68.7563 148.872 69.9714 147.98 71.5L139.985 66.8349Z" fill="#EA5D5D"/>
<path d="M66.7317 97.6036L75.9631 95.175L78.3147 104.114L69.0833 106.543L66.7317 97.6036ZM49.5662 78.3077C48.268 72.3655 49.2271 67.6595 52.4435 64.1897C54.4681 61.9814 57.2565 60.41 60.8087 59.4755C65.476 58.2476 69.6411 58.3424 73.3041 59.7599C76.9878 61.172 79.4046 64.0639 80.5546 68.4355C81.2598 71.1162 81.1826 73.5508 80.3231 75.7392C79.8312 77.0592 78.6979 78.8786 76.9232 81.1976L75.1713 83.4774C74.2176 84.7205 73.7073 86.0122 73.6404 87.3527C73.5987 88.2015 73.7845 89.4535 74.1978 91.1086L65.8338 93.309C65.041 89.7914 64.7394 87.3022 64.9292 85.8412C65.1135 84.3596 66.0931 82.4593 67.8678 80.1404L69.6654 77.7824C70.2624 77.03 70.7013 76.2641 70.982 75.4847C71.5098 74.1333 71.5946 72.777 71.2366 71.4161C70.8243 69.8489 69.9853 68.5483 68.7197 67.5143C67.4692 66.4542 65.6256 66.2447 63.1886 66.8858C60.793 67.5161 59.2981 68.7582 58.7038 70.6122C58.1302 72.4608 58.0686 74.2409 58.5188 75.9524L49.5662 78.3077Z" fill="#F9BA18"/>
<path d="M53.8042 123.008H43.3796L44.334 120.634V155.432H40.1739V120.634L41.3485 123.008H30.7282V119.337H53.8042V123.008ZM63.3382 155.432V119.337H75.8673C79.179 119.337 81.6995 120.12 83.4288 121.686C85.1581 123.252 86.0227 125.642 86.0227 128.856C86.0227 130.781 85.6557 132.421 84.9215 133.775C84.2037 135.113 83.3309 136.148 82.3031 136.883C81.2917 137.617 80.3536 138.033 79.489 138.131C80.37 138.196 81.2346 138.441 82.0829 138.865C82.9475 139.273 83.6654 139.909 84.2363 140.773C84.8073 141.638 85.0928 142.796 85.0928 144.248C85.0928 145.586 85.0928 146.956 85.0928 148.359C85.0928 149.746 85.0928 151.116 85.0928 152.471C85.0928 153.172 85.1499 153.8 85.2641 154.355C85.3783 154.893 85.5088 155.252 85.6557 155.432H81.4467C81.3325 155.219 81.2183 154.852 81.1041 154.33C80.9899 153.808 80.9328 153.188 80.9328 152.471C80.9328 151.214 80.9328 149.934 80.9328 148.629C80.9328 147.324 80.9328 146.035 80.9328 144.762C80.9328 143.163 80.4271 141.973 79.4156 141.189C78.4041 140.406 76.9767 140.015 75.1332 140.015H66.2503L67.4249 138.424V155.432H63.3382ZM67.4249 138.082L66.2503 136.344H75.1821C76.3894 136.344 77.4824 136.051 78.4612 135.463C79.4564 134.86 80.2476 134.028 80.8349 132.967C81.4385 131.891 81.7403 130.634 81.7403 129.199C81.7403 126.964 81.153 125.373 79.9784 124.427C78.8038 123.481 77.1072 123.008 74.8885 123.008H66.1524L67.4249 121.197V138.082ZM96.7765 155.432V119.337H100.888V155.432H96.7765ZM119.934 155.627L110.121 119.337H114.697L123.115 152.348H122.821L131.141 119.337H135.742L126.027 155.627H119.934ZM144.957 155.432V119.337H149.068V155.432H144.957ZM158.397 155.432L168.332 119.239H174.842L184.703 155.432H180.396L171.562 121.955H171.611L162.704 155.432H158.397ZM163.536 145.863V142.193H179.638V145.863H163.536Z" fill="white"/>
<defs>
<filter id="filter0_di_11_631" x="0.43076" y="0.858398" width="214.231" height="215.314" filterUnits="userSpaceOnUse" color-interpolation-filters="sRGB">
<feFlood flood-opacity="0" result="BackgroundImageFix"/>
<feColorMatrix in="SourceAlpha" type="matrix" values="0 0 0 0 0 0 0 0 0 0 0 0 0 0 0 0 0 0 127 0" result="hardAlpha"/>
<feOffset dy="3.4277"/>
<feGaussianBlur stdDeviation="1.71385"/>
<feComposite in2="hardAlpha" operator="out"/>
<feColorMatrix type="matrix" values="0 0 0 0 0 0 0 0 0 0 0 0 0 0 0 0 0 0 0.25 0"/>
<feBlend mode="normal" in2="BackgroundImageFix" result="effect1_dropShadow_11_631"/>
<feBlend mode="normal" in="SourceGraphic" in2="effect1_dropShadow_11_631" result="shape"/>
<feColorMatrix in="SourceAlpha" type="matrix" values="0 0 0 0 0 0 0 0 0 0 0 0 0 0 0 0 0 0 127 0" result="hardAlpha"/>
<feOffset dy="3.4277"/>
<feGaussianBlur stdDeviation="14.9962"/>
<feComposite in2="hardAlpha" operator="arithmetic" k2="-1" k3="1"/>
<feColorMatrix type="matrix" values="0 0 0 0 0.121493 0 0 0 0 0.0553125 0 0 0 0 0.245833 0 0 0 1 0"/>
<feBlend mode="normal" in2="shape" result="effect2_innerShadow_11_631"/>
</filter>
</defs>
</svg>
